<svg width="51" height="61" viewBox="0 0 51 61" fill="none" xmlns="http://www.w3.org/2000/svg">
<path d="M48.9579 60.0991H1.71769C0.768917 60.0991 0 59.3413 0 58.4061V11.8435C0 10.9083 0.768917 10.1505 1.71769 10.1505H48.9579C49.9066 10.1505 50.6756 10.9083 50.6756 11.8435V58.4057C50.676 59.3408 49.9066 60.0991 48.9579 60.0991Z" fill="#073763"/>
<path d="M48.9579 58.4057H1.71769C0.768917 58.4057 0 57.6478 0 56.7126V10.1504C0 9.21528 0.768917 8.4574 1.71769 8.4574H48.9579C49.9066 8.4574 50.6756 9.21528 50.6756 10.1504V56.7126C50.676 57.6478 49.9066 58.4057 48.9579 58.4057Z" fill="white"/>
<path d="M48.9579 57.136H1.71769C0.768917 57.136 0 56.3781 0 55.443V8.88078C0 7.94563 0.768917 7.18774 1.71769 7.18774H48.9579C49.9066 7.18774 50.6756 7.94563 50.6756 8.88078V55.443C50.676 56.3777 49.9066 57.136 48.9579 57.136Z" fill="#073763"/>
<path d="M50.1756 53.3261V53.3263C50.1759 53.9783 49.6374 54.5196 48.9579 54.5196H1.71769C1.03822 54.5196 0.5 53.9787 0.5 53.3265V6.7639C0.5 6.11167 1.03822 5.57086 1.71769 5.57086H48.9579C49.6373 5.57086 50.1756 6.11168 50.1756 6.7639V53.3261Z" fill="white" stroke="#073763"/>
<path d="M50.676 17.558H0V18.5633H50.676V17.558Z" fill="#073763"/>
<path d="M48.9579 5.07086H1.71769C0.768917 5.07086 0 5.82874 0 6.7639V17.558H50.676V6.7639C50.676 5.82918 49.9066 5.07086 48.9579 5.07086Z" fill="#073763"/>
<path d="M50.676 14.6481H0V17.5581H50.676V14.6481Z" fill="#076092"/>
<path d="M16.078 10.1504C16.078 11.3195 15.1164 12.2668 13.9308 12.2668C12.7447 12.2668 11.7835 11.3195 11.7835 10.1504C11.7835 8.98135 12.7447 8.034 13.9308 8.034C15.1164 8.034 16.078 8.98135 16.078 10.1504Z" fill="#076092"/>
<path d="M38.8926 10.1504C38.8926 11.3195 37.9314 12.2668 36.7453 12.2668C35.5593 12.2668 34.5981 11.3195 34.5981 10.1504C34.5981 8.98135 35.5593 8.034 36.7453 8.034C37.9314 8.034 38.8926 8.98135 38.8926 10.1504Z" fill="#076092"/>
<path d="M13.9309 0C13.0414 0 12.3206 0.71084 12.3206 1.58719V10.1238C12.3206 11.0006 13.0418 11.711 13.9309 11.711C14.8205 11.711 15.5412 11.0002 15.5412 10.1238V1.58763C15.5412 0.71084 14.8205 0 13.9309 0Z" fill="#E6E7E8"/>
<path d="M13.9309 0C13.0414 0 12.3206 0.71084 12.3206 1.58719V4.18882C12.3206 3.31203 13.0418 2.60162 13.9309 2.60162C14.8205 2.60162 15.5412 3.31246 15.5412 4.18882V1.58719C15.5412 0.71084 14.82 0 13.9309 0Z" fill="white"/>
<path d="M13.9307 9.17167C13.0411 9.17167 12.3204 8.46083 12.3204 7.58447V10.1242C12.3204 11.001 13.0416 11.7114 13.9307 11.7114C14.8202 11.7114 15.541 11.0006 15.541 10.1242V7.58447C15.541 8.46083 14.8198 9.17167 13.9307 9.17167Z" fill="#D1D3D4"/>
<path d="M36.7455 0C35.8559 0 35.1352 0.71084 35.1352 1.58719V10.1238C35.1352 11.0006 35.8564 11.711 36.7455 11.711C37.6351 11.711 38.3558 11.0002 38.3558 10.1238V1.58763C38.3558 0.71084 37.6351 0 36.7455 0Z" fill="#E6E7E8"/>
<path d="M36.7455 0C35.8559 0 35.1352 0.71084 35.1352 1.58719V4.18882C35.1352 3.31203 35.8564 2.60162 36.7455 2.60162C37.6351 2.60162 38.3558 3.31246 38.3558 4.18882V1.58719C38.3558 0.71084 37.6351 0 36.7455 0Z" fill="white"/>
<path d="M36.7454 9.17167C35.8559 9.17167 35.1351 8.46083 35.1351 7.58447V10.1242C35.1351 11.001 35.8563 11.7114 36.7454 11.7114C37.635 11.7114 38.3557 11.0006 38.3557 10.1242V7.58447C38.3557 8.46083 37.635 9.17167 36.7454 9.17167Z" fill="#D1D3D4"/>
<path d="M11.8252 30.2085H4.84976C4.38797 30.2085 4.01367 29.8396 4.01367 29.3845V22.5091C4.01367 22.0539 4.38797 21.685 4.84976 21.685H11.8252C12.287 21.685 12.6613 22.0539 12.6613 22.5091V29.3845C12.6613 29.8396 12.287 30.2085 11.8252 30.2085Z" fill="#E6E7E8"/>
<path d="M23.0065 30.2085H16.031C15.5692 30.2085 15.1949 29.8396 15.1949 29.3845V22.5091C15.1949 22.0539 15.5692 21.685 16.031 21.685H23.0065C23.4683 21.685 23.8426 22.0539 23.8426 22.5091V29.3845C23.8426 29.8396 23.4683 30.2085 23.0065 30.2085Z" fill="#E6E7E8"/>
<path d="M34.1885 30.2085H27.213C26.7512 30.2085 26.377 29.8396 26.377 29.3845V22.5091C26.377 22.0539 26.7512 21.685 27.213 21.685H34.1885C34.6503 21.685 35.0246 22.0539 35.0246 22.5091V29.3845C35.0246 29.8396 34.6503 30.2085 34.1885 30.2085Z" fill="#E6E7E8"/>
<path d="M45.3701 30.2085H38.3946C37.9328 30.2085 37.5585 29.8396 37.5585 29.3845V22.5091C37.5585 22.0539 37.9328 21.685 38.3946 21.685H45.3701C45.8319 21.685 46.2062 22.0539 46.2062 22.5091V29.3845C46.2062 29.8396 45.8319 30.2085 45.3701 30.2085Z" fill="#E6E7E8"/>
<path d="M11.825 40.9208H4.84951C4.38772 40.9208 4.01343 40.5519 4.01343 40.0967V33.2214C4.01343 32.7662 4.38772 32.3973 4.84951 32.3973H11.825C12.2868 32.3973 12.6611 32.7662 12.6611 33.2214V40.0967C12.6611 40.5519 12.2868 40.9208 11.825 40.9208Z" fill="#E6E7E8"/>
<path d="M23.0065 40.9208H16.031C15.5692 40.9208 15.1949 40.5519 15.1949 40.0967V33.2214C15.1949 32.7662 15.5692 32.3973 16.031 32.3973H23.0065C23.4683 32.3973 23.8426 32.7662 23.8426 33.2214V40.0967C23.8426 40.5519 23.4683 40.9208 23.0065 40.9208Z" fill="#E6E7E8"/>
<path d="M34.1885 40.9208H27.213C26.7512 40.9208 26.377 40.5519 26.377 40.0967V33.2214C26.377 32.7662 26.7512 32.3973 27.213 32.3973H34.1885C34.6503 32.3973 35.0246 32.7662 35.0246 33.2214V40.0967C35.0246 40.5519 34.6503 40.9208 34.1885 40.9208Z" fill="#E6E7E8"/>
<path d="M45.3701 40.9208H38.3946C37.9328 40.9208 37.5585 40.5519 37.5585 40.0967V33.2214C37.5585 32.7662 37.9328 32.3973 38.3946 32.3973H45.3701C45.8319 32.3973 46.2062 32.7662 46.2062 33.2214V40.0967C46.2062 40.5519 45.8319 40.9208 45.3701 40.9208Z" fill="#E6E7E8"/>
<path d="M11.825 51.633H4.84951C4.38772 51.633 4.01343 51.2641 4.01343 50.809V43.9336C4.01343 43.4784 4.38772 43.1095 4.84951 43.1095H11.825C12.2868 43.1095 12.6611 43.4784 12.6611 43.9336V50.809C12.6611 51.2641 12.2868 51.633 11.825 51.633Z" fill="#E6E7E8"/>
<path d="M23.0065 51.633H16.031C15.5692 51.633 15.1949 51.2641 15.1949 50.809V43.9336C15.1949 43.4784 15.5692 43.1095 16.031 43.1095H23.0065C23.4683 43.1095 23.8426 43.4784 23.8426 43.9336V50.809C23.8426 51.2641 23.4683 51.633 23.0065 51.633Z" fill="#E6E7E8"/>
<path d="M34.1885 51.633H27.213C26.7512 51.633 26.377 51.2641 26.377 50.809V43.9336C26.377 43.4784 26.7512 43.1095 27.213 43.1095H34.1885C34.6503 43.1095 35.0246 43.4784 35.0246 43.9336V50.809C35.0246 51.2641 34.6503 51.633 34.1885 51.633Z" fill="#E6E7E8"/>
<path d="M45.3701 51.633H38.3946C37.9328 51.633 37.5585 51.2641 37.5585 50.809V43.9336C37.5585 43.4784 37.9328 43.1095 38.3946 43.1095H45.3701C45.8319 43.1095 46.2062 43.4784 46.2062 43.9336V50.809C46.2062 51.2641 45.8319 51.633 45.3701 51.633Z" fill="#E6E7E8"/>
</svg>
